<mxfile host="app.diagrams.net" modified="2024-06-22T21:49:29.783Z" agent="Mozilla/5.0 (X11; Ubuntu; Linux x86_64; rv:126.0) Gecko/20100101 Firefox/126.0" etag="ijffn65vZqdx3ih3pDq8" version="24.6.2" type="device">
  <diagram name="Page-1" id="YuTa4Yqm1gZRCa6p-S3M">
    <mxGraphModel dx="352" dy="226" grid="1" gridSize="10" guides="1" tooltips="1" connect="1" arrows="1" fold="1" page="1" pageScale="1" pageWidth="850" pageHeight="1100" math="0" shadow="0">
      <root>
        <mxCell id="0" />
        <mxCell id="1" parent="0" />
        <mxCell id="VXGYU35AcvrcO7LBQQxw-1" value="" style="rounded=1;whiteSpace=wrap;html=1;" vertex="1" parent="1">
          <mxGeometry x="400" y="380" width="120" height="60" as="geometry" />
        </mxCell>
        <mxCell id="VXGYU35AcvrcO7LBQQxw-2" value="" style="ellipse;whiteSpace=wrap;html=1;aspect=fixed;direction=south;" vertex="1" parent="1">
          <mxGeometry x="450" y="400" width="20" height="20" as="geometry" />
        </mxCell>
        <mxCell id="VXGYU35AcvrcO7LBQQxw-3" value="" style="endArrow=none;html=1;rounded=0;entryX=0.5;entryY=0.5;entryDx=0;entryDy=0;entryPerimeter=0;exitX=0.588;exitY=0.8;exitDx=0;exitDy=0;exitPerimeter=0;" edge="1" parent="1" source="VXGYU35AcvrcO7LBQQxw-1" target="VXGYU35AcvrcO7LBQQxw-2">
          <mxGeometry width="50" height="50" relative="1" as="geometry">
            <mxPoint x="420" y="390" as="sourcePoint" />
            <mxPoint x="450" y="320" as="targetPoint" />
            <Array as="points">
              <mxPoint x="460" y="428" />
            </Array>
          </mxGeometry>
        </mxCell>
        <mxCell id="VXGYU35AcvrcO7LBQQxw-5" value="" style="endArrow=none;html=1;rounded=0;exitX=0;exitY=0.5;exitDx=0;exitDy=0;" edge="1" parent="1" source="VXGYU35AcvrcO7LBQQxw-1">
          <mxGeometry width="50" height="50" relative="1" as="geometry">
            <mxPoint x="420" y="450" as="sourcePoint" />
            <mxPoint x="360" y="410" as="targetPoint" />
          </mxGeometry>
        </mxCell>
        <mxCell id="VXGYU35AcvrcO7LBQQxw-6" value="&lt;font style=&quot;font-size: 16px;&quot;&gt;A&lt;/font&gt;" style="edgeLabel;html=1;align=center;verticalAlign=middle;resizable=0;points=[];imageAspect=1;backgroundOutline=0;overflow=visible;noLabel=0;allowArrows=1;labelPadding=0;" vertex="1" connectable="0" parent="VXGYU35AcvrcO7LBQQxw-5">
          <mxGeometry relative="1" as="geometry">
            <mxPoint y="-20" as="offset" />
          </mxGeometry>
        </mxCell>
        <mxCell id="VXGYU35AcvrcO7LBQQxw-7" value="" style="endArrow=none;html=1;rounded=0;exitX=0;exitY=0.5;exitDx=0;exitDy=0;" edge="1" parent="1">
          <mxGeometry width="50" height="50" relative="1" as="geometry">
            <mxPoint x="560" y="409.84" as="sourcePoint" />
            <mxPoint x="520" y="409.84" as="targetPoint" />
          </mxGeometry>
        </mxCell>
        <mxCell id="VXGYU35AcvrcO7LBQQxw-8" value="Y" style="edgeLabel;html=1;align=center;verticalAlign=middle;resizable=0;points=[];imageAspect=1;backgroundOutline=0;overflow=visible;noLabel=0;allowArrows=1;labelPadding=0;" vertex="1" connectable="0" parent="VXGYU35AcvrcO7LBQQxw-7">
          <mxGeometry relative="1" as="geometry">
            <mxPoint y="-20" as="offset" />
          </mxGeometry>
        </mxCell>
      </root>
    </mxGraphModel>
  </diagram>
</mxfile>
